<svg width="119" height="31" viewBox="0 0 119 31" fill="none" xmlns="http://www.w3.org/2000/svg">
<path d="M11.4531 7.09375H15.5312V23.4375C15.5312 24.9792 15.1875 26.2865 14.5 27.3594C13.8229 28.4427 12.875 29.2604 11.6562 29.8125C10.4375 30.375 9.02083 30.6562 7.40625 30.6562C6.69792 30.6562 5.94792 30.5625 5.15625 30.375C4.375 30.1875 3.625 29.8958 2.90625 29.5C2.19792 29.1042 1.60417 28.6042 1.125 28L3.10938 25.3438C3.63021 25.9479 4.23438 26.4167 4.92188 26.75C5.60938 27.0938 6.36979 27.2656 7.20312 27.2656C8.01562 27.2656 8.70312 27.1146 9.26562 26.8125C9.82812 26.5208 10.2604 26.0885 10.5625 25.5156C10.8646 24.9531 11.0156 24.2708 11.0156 23.4688V11L11.4531 7.09375ZM0.078125 15.75V15.4219C0.078125 14.1302 0.234375 12.9583 0.546875 11.9062C0.869792 10.8438 1.32292 9.93229 1.90625 9.17188C2.5 8.41146 3.21875 7.82292 4.0625 7.40625C4.90625 6.98958 5.85938 6.78125 6.92188 6.78125C8.04688 6.78125 8.98958 6.98958 9.75 7.40625C10.5104 7.82292 11.1354 8.41667 11.625 9.1875C12.1146 9.94792 12.4948 10.849 12.7656 11.8906C13.0469 12.9219 13.2656 14.0521 13.4219 15.2812V16C13.2656 17.1771 13.0312 18.2708 12.7188 19.2812C12.4062 20.2917 11.9948 21.1771 11.4844 21.9375C10.974 22.6875 10.3385 23.2708 9.57812 23.6875C8.82812 24.1042 7.93229 24.3125 6.89062 24.3125C5.84896 24.3125 4.90625 24.099 4.0625 23.6719C3.22917 23.2448 2.51562 22.6458 1.92188 21.875C1.32812 21.1042 0.869792 20.1979 0.546875 19.1562C0.234375 18.1146 0.078125 16.9792 0.078125 15.75ZM4.57812 15.4219V15.75C4.57812 16.4479 4.64583 17.099 4.78125 17.7031C4.91667 18.3073 5.125 18.8438 5.40625 19.3125C5.69792 19.7708 6.05729 20.1302 6.48438 20.3906C6.92188 20.6406 7.4375 20.7656 8.03125 20.7656C8.85417 20.7656 9.52604 20.5938 10.0469 20.25C10.5677 19.8958 10.9583 19.4115 11.2188 18.7969C11.4792 18.1823 11.6302 17.474 11.6719 16.6719V14.625C11.651 13.9688 11.5625 13.3802 11.4062 12.8594C11.25 12.3281 11.0312 11.875 10.75 11.5C10.4688 11.125 10.1042 10.8333 9.65625 10.625C9.20833 10.4167 8.67708 10.3125 8.0625 10.3125C7.46875 10.3125 6.95312 10.4479 6.51562 10.7188C6.08854 10.9792 5.72917 11.3385 5.4375 11.7969C5.15625 12.2552 4.94271 12.7969 4.79688 13.4219C4.65104 14.0365 4.57812 14.7031 4.57812 15.4219ZM19.0312 0H23.5312V20.125L23.0781 24H19.0312V0ZM34.2344 15.375V15.7031C34.2344 16.9635 34.099 18.1198 33.8281 19.1719C33.5677 20.224 33.1615 21.1354 32.6094 21.9062C32.0573 22.6667 31.3698 23.2604 30.5469 23.6875C29.7344 24.1042 28.776 24.3125 27.6719 24.3125C26.6406 24.3125 25.7448 24.1042 24.9844 23.6875C24.2344 23.2708 23.6042 22.6823 23.0938 21.9219C22.5833 21.1615 22.1719 20.2708 21.8594 19.25C21.5469 18.2292 21.3125 17.1146 21.1562 15.9062V15.1875C21.3125 13.9792 21.5469 12.8646 21.8594 11.8438C22.1719 10.8229 22.5833 9.93229 23.0938 9.17188C23.6042 8.41146 24.2344 7.82292 24.9844 7.40625C25.7344 6.98958 26.6198 6.78125 27.6406 6.78125C28.7552 6.78125 29.724 6.99479 30.5469 7.42188C31.3802 7.83854 32.0677 8.43229 32.6094 9.20312C33.1615 9.96354 33.5677 10.8698 33.8281 11.9219C34.099 12.9635 34.2344 14.1146 34.2344 15.375ZM29.7344 15.7031V15.375C29.7344 14.6875 29.6823 14.0417 29.5781 13.4375C29.4844 12.8229 29.3177 12.2865 29.0781 11.8281C28.8385 11.3594 28.5104 10.9896 28.0938 10.7188C27.6875 10.4479 27.1615 10.3125 26.5156 10.3125C25.901 10.3125 25.3802 10.4167 24.9531 10.625C24.526 10.8333 24.1719 11.125 23.8906 11.5C23.6198 11.875 23.4167 12.3229 23.2812 12.8438C23.1458 13.3542 23.0625 13.9167 23.0312 14.5312V16.5781C23.0625 17.401 23.1979 18.1302 23.4375 18.7656C23.6875 19.3906 24.0625 19.8854 24.5625 20.25C25.0729 20.6042 25.7344 20.7812 26.5469 20.7812C27.1823 20.7812 27.7083 20.6562 28.125 20.4062C28.5417 20.1562 28.8646 19.8021 29.0938 19.3438C29.3333 18.8854 29.5 18.349 29.5938 17.7344C29.6875 17.1094 29.7344 16.4323 29.7344 15.7031ZM50.7188 10.7031V24H46.2188V7.09375H50.4375L50.7188 10.7031ZM50.0625 14.9531H48.8438C48.8438 13.7031 49.0052 12.5781 49.3281 11.5781C49.651 10.5677 50.1042 9.70833 50.6875 9C51.2708 8.28125 51.9635 7.73438 52.7656 7.35938C53.5781 6.97396 54.4844 6.78125 55.4844 6.78125C56.276 6.78125 57 6.89583 57.6562 7.125C58.3125 7.35417 58.875 7.71875 59.3438 8.21875C59.8229 8.71875 60.1875 9.38021 60.4375 10.2031C60.6979 11.026 60.8281 12.0312 60.8281 13.2188V24H56.2969V13.2031C56.2969 12.4531 56.1927 11.8698 55.9844 11.4531C55.776 11.0365 55.4688 10.7448 55.0625 10.5781C54.6667 10.401 54.1771 10.3125 53.5938 10.3125C52.9896 10.3125 52.4635 10.4323 52.0156 10.6719C51.5781 10.9115 51.2135 11.2448 50.9219 11.6719C50.6406 12.0885 50.4271 12.5781 50.2812 13.1406C50.1354 13.7031 50.0625 14.3073 50.0625 14.9531ZM72.0312 24.3125C70.7188 24.3125 69.5417 24.1042 68.5 23.6875C67.4583 23.2604 66.5729 22.6719 65.8438 21.9219C65.125 21.1719 64.5729 20.3021 64.1875 19.3125C63.8021 18.3125 63.6094 17.25 63.6094 16.125V15.5C63.6094 14.2188 63.7917 13.0469 64.1562 11.9844C64.5208 10.9219 65.0417 10 65.7188 9.21875C66.4062 8.4375 67.2396 7.83854 68.2188 7.42188C69.1979 6.99479 70.3021 6.78125 71.5312 6.78125C72.7292 6.78125 73.7917 6.97917 74.7188 7.375C75.6458 7.77083 76.4219 8.33333 77.0469 9.0625C77.6823 9.79167 78.1615 10.6667 78.4844 11.6875C78.8073 12.6979 78.9688 13.8229 78.9688 15.0625V16.9375H65.5312V13.9375H74.5469V13.5938C74.5469 12.9688 74.4323 12.4115 74.2031 11.9219C73.9844 11.4219 73.651 11.026 73.2031 10.7344C72.7552 10.4427 72.1823 10.2969 71.4844 10.2969C70.8906 10.2969 70.3802 10.4271 69.9531 10.6875C69.526 10.9479 69.1771 11.3125 68.9062 11.7812C68.6458 12.25 68.4479 12.8021 68.3125 13.4375C68.1875 14.0625 68.125 14.75 68.125 15.5V16.125C68.125 16.8021 68.2188 17.4271 68.4062 18C68.6042 18.5729 68.8802 19.0677 69.2344 19.4844C69.599 19.901 70.0365 20.224 70.5469 20.4531C71.0677 20.6823 71.6562 20.7969 72.3125 20.7969C73.125 20.7969 73.8802 20.6406 74.5781 20.3281C75.2865 20.0052 75.8958 19.5208 76.4062 18.875L78.5938 21.25C78.2396 21.7604 77.7552 22.25 77.1406 22.7188C76.5365 23.1875 75.8073 23.5729 74.9531 23.875C74.099 24.1667 73.125 24.3125 72.0312 24.3125ZM86.3594 19.625L89.875 7.09375H92.7344L91.8125 12.0156L88.2969 24H85.9062L86.3594 19.625ZM84.5781 7.09375L87.0938 19.6094L87.3281 24H84.5156L80.2344 7.09375H84.5781ZM95.9531 19.4062L98.4062 7.09375H102.766L98.4844 24H95.6875L95.9531 19.4062ZM93.125 7.09375L96.625 19.5312L97.1094 24H94.7031L91.1875 12.0312L90.2969 7.09375H93.125ZM114.172 19.3281C114.172 19.0052 114.078 18.7135 113.891 18.4531C113.703 18.1927 113.354 17.9531 112.844 17.7344C112.344 17.5052 111.62 17.2969 110.672 17.1094C109.818 16.9219 109.021 16.6875 108.281 16.4062C107.552 16.1146 106.917 15.7656 106.375 15.3594C105.844 14.9531 105.427 14.474 105.125 13.9219C104.823 13.3594 104.672 12.7188 104.672 12C104.672 11.2917 104.823 10.625 105.125 10C105.438 9.375 105.88 8.82292 106.453 8.34375C107.036 7.85417 107.745 7.47396 108.578 7.20312C109.422 6.92188 110.37 6.78125 111.422 6.78125C112.891 6.78125 114.151 7.01562 115.203 7.48438C116.266 7.95312 117.078 8.59896 117.641 9.42188C118.214 10.2344 118.5 11.1615 118.5 12.2031H114C114 11.7656 113.906 11.375 113.719 11.0312C113.542 10.6771 113.26 10.401 112.875 10.2031C112.5 9.99479 112.01 9.89062 111.406 9.89062C110.906 9.89062 110.474 9.97917 110.109 10.1562C109.745 10.3229 109.464 10.5521 109.266 10.8438C109.078 11.125 108.984 11.4375 108.984 11.7812C108.984 12.0417 109.036 12.276 109.141 12.4844C109.255 12.6823 109.438 12.8646 109.688 13.0312C109.938 13.1979 110.26 13.3542 110.656 13.5C111.062 13.6354 111.562 13.7604 112.156 13.875C113.375 14.125 114.464 14.4531 115.422 14.8594C116.38 15.2552 117.141 15.7969 117.703 16.4844C118.266 17.1615 118.547 18.0521 118.547 19.1562C118.547 19.9062 118.38 20.5938 118.047 21.2188C117.714 21.8438 117.234 22.3906 116.609 22.8594C115.984 23.3177 115.234 23.6771 114.359 23.9375C113.495 24.1875 112.521 24.3125 111.438 24.3125C109.865 24.3125 108.531 24.0312 107.438 23.4688C106.354 22.9062 105.531 22.1927 104.969 21.3281C104.417 20.4531 104.141 19.5573 104.141 18.6406H108.406C108.427 19.2552 108.583 19.75 108.875 20.125C109.177 20.5 109.557 20.7708 110.016 20.9375C110.484 21.1042 110.99 21.1875 111.531 21.1875C112.115 21.1875 112.599 21.1094 112.984 20.9531C113.37 20.7865 113.661 20.5677 113.859 20.2969C114.068 20.0156 114.172 19.6927 114.172 19.3281Z" fill="#E1E1E6"/>
<path d="M37.25 21.8281C37.25 21.1615 37.4792 20.6042 37.9375 20.1562C38.4062 19.7083 39.026 19.4844 39.7969 19.4844C40.5677 19.4844 41.1823 19.7083 41.6406 20.1562C42.1094 20.6042 42.3438 21.1615 42.3438 21.8281C42.3438 22.4948 42.1094 23.0521 41.6406 23.5C41.1823 23.9479 40.5677 24.1719 39.7969 24.1719C39.026 24.1719 38.4062 23.9479 37.9375 23.5C37.4792 23.0521 37.25 22.4948 37.25 21.8281Z" fill="#61DCFB"/>
</svg>
